<svg xmlns="http://www.w3.org/2000/svg" width="64" height="64"><path fill="#785647" d="M60.718 28l-49.117-.181-7.373-14.741h47.12z"/><path fill="#9E6C49" d="M14.663 30.901h-1.604L2 12h1.538z"/><path fill="#F59E01" d="M16 22h42v20H16z"/><path fill="#D47706" d="M14 25h42v17H14z"/><path fill="#F9B700" d="M12 26h42v16H12z"/><path fill="#EA8800" d="M10 29h42v13H10z"/><path fill="#F9C802" d="M8 30h42v12H8z"/><path fill="#E81C27" d="M22 30H8v-4c0-1.1.9-2 2-2h10c1.1 0 2 .9 2 2v4z"/><path fill="#7AB51D" d="M40 26H26v-4c0-1.1.9-2 2-2h10c1.1 0 2 .9 2 2v4z"/><path fill="#006DAE" d="M58 22H44v-4c0-1.1.9-2 2-2h10c1.1 0 2 .9 2 2v4z"/><path fill="#EA8800" d="M22 30h1l-1-4z"/><path fill="#D47706" d="M40 26h1l-1-4z"/><path fill="#C4926E" d="M2 36h50v26H2z"/><path fill="#785647" d="M62 50L52 62V36l10-8z"/><path fill="#9E6C49" d="M58 28v1.6l-6.652 5.322H8v-.926L2 36h50l10-8z"/><path fill="#C4926E" d="M2 2h50v10H2z"/><path fill="#785647" d="M62 24L52 2v10l10 20z"/><path fill="#9E6C49" d="M61 32l-9.652-18.922H4.228L2 12h50l10 20z"/><path fill="#99A8AE" d="M37 52.5a2 2 0 0 1-2 2H19a2 2 0 0 1-2-2v-6a2 2 0 0 1 2-2h16a2 2 0 0 1 2 2v6z"/><path fill="#FFF" d="M19 46.5h16v6H19z"/><path fill="#CFD8DD" d="M19 46.5h16v2H19z"/></svg>