<svg xmlns="http://www.w3.org/2000/svg" width="64" height="64"><path fill="#E6EBEF" d="M50 62H2V2h36l12 10z"/><path fill="#99A8AE" d="M6 10h40v2H6zm0 6h40v2H6zm0 6h40v2H6zm0 6h40v2H6zm0 6h40v2H6zm0 6h40v2H6zm0 6h40v2H6zm0 6h20v2H6z"/><path fill="#CFD8DD" d="M50 12H38V2z"/><path fill="#F9C802" d="M33.96 42.565l15.957-15.954 7.477 7.478-15.956 15.955z"/><path fill="#E81C27" d="M60.648 24.3l-.949-.951a4.617 4.617 0 0 0-6.527 0l-3.26 3.263 7.477 7.477 3.26-3.262a4.615 4.615 0 0 0-.001-6.527z"/><path fill="#6E8189" d="M47.872 28.658l2.039-2.041 7.478 7.471-2.04 2.041z"/><path fill="#CFD8DD" d="M48.671 29.453l2.041-2.041 5.877 5.877-2.041 2.04z"/><path fill="#FED0AC" d="M33.957 42.564l-3.238 8.481 2.228 2.242 8.487-3.244z"/><path fill="#302C3B" d="M30.148 52.523c-.447 1.18.15 1.775 1.326 1.326l4.115-1.574-3.865-3.863-1.576 4.111z"/><path fill="#FFE463" d="M47.872 28.649l2.493 2.49-13.91 13.922-2.492-2.49z"/><path fill="#EA8800" d="M52.855 33.632l2.492 2.49-13.91 13.922-2.492-2.49z"/></svg>