<svg xmlns="http://www.w3.org/2000/svg" width="64" height="64"><path fill="#EA8800" d="M43.213 5.496C37.504-1.608 9.194 1.239 9.194 22.19c.118 11.257 2.011 36.824 22.747 36.824 20.731 0 22.628-25.459 22.866-36.824 0-6.979-4.147-15.23-11.594-16.694z"/><path fill="#D67C00" d="M9.522 29.067c1.021 12.42 5.269 29.948 22.438 29.948 17.226 0 21.444-17.566 22.518-30.029-.563-5.739-4.046-13.15-11.597-21.887-15.477 9.776-32.196 8.254-33.359 21.968z"/><path fill="#8E3ED6" d="M13.902 52.132c2.199-1.457 11.332-5.302 11.332-5.302h13.604s9.123 3.837 11.311 5.298C53.33 54.247 54 62.001 54 62.001H10s.709-7.76 3.902-9.869"/><path fill="#E6A400" d="M25.059 49.976l6.943 12.025 6.939-12.025v-9.412H25.059z"/><path fill="#5D1E96" d="M49.406 55.438c-.586 1.637-1.137 4.607-.668 6.563 1.006-1.074 1.211-8.086.668-6.563m-33.883 6.563c.469-1.955-.082-4.928-.668-6.563-.544-1.525-.337 5.487.668 6.563m16.479 0H28.82s-2.479-3.514-6.83-5.311c0 0 2.135-2.889 5.004-4.137 3.682 3.987 5.008 9.448 5.008 9.448"/><path fill="#E6EBEF" d="M32.002 62.001s-2.988-11.346-10.375-9.035c0 0-.293-5.806 3.432-8.87 1.152-.949-1.037 3.162 3.627 8.886 2.507 3.078 3.316 9.019 3.316 9.019"/><path fill="#5D1E96" d="M32.002 62.001h3.182s2.477-3.514 6.828-5.311c0 0-2.135-2.889-5.006-4.137-3.68 3.987-5.004 9.448-5.004 9.448"/><path fill="#E6EBEF" d="M32.002 62.001s2.984-11.346 10.371-9.035c0 0 .293-5.806-3.43-8.87-1.154-.949 1.035 3.162-3.627 8.886-2.509 3.078-3.314 9.019-3.314 9.019"/><path fill="#FDCA47" d="M47.804 21.422C45.44 15.85 41.107 9.804 41.107 9.804c-15.858 9.528-29.262 4.747-25.54 22.805 1.767 8.569 12.366 15.207 16.544 15.207 4.172 0 15.039-6.587 16.537-15.207.868-4.994.257-8.591-.844-11.187z"/><path fill="#F5F5F5" d="M46.606 25.148c-1.888 4.917-9.565 4.194-10.973.757 1.07-5.526 9.937-5.998 10.973-.757z"/><path fill="#45332C" d="M37.594 24.625c0 4.336 6.27 4.336 6.27 0-.001-4.025-6.27-4.025-6.27 0z"/><path fill="#45332C" d="M46.606 25.113c0-5.279-10.973-5.279-10.973.835 1.57-5.016 9.406-5.016 10.973-.835z"/><path fill="#F5F5F5" d="M17.61 25.148c1.887 4.917 9.566 4.194 10.972.757-1.068-5.526-9.934-5.998-10.972-.757z"/><path fill="#45332C" d="M26.622 24.625c0 4.336-6.27 4.336-6.27 0 0-4.025 6.27-4.025 6.27 0z"/><path fill="#45332C" d="M17.61 25.113c0-5.276 10.972-5.276 10.972.833-1.567-5.014-9.405-5.014-10.972-.833z"/><path fill="#F5F5F5" d="M37.98 23.57c0 1.085 1.567 1.085 1.567 0 .001-1.005-1.567-1.005-1.567 0zm-15.479-.219c0 1.083-1.566 1.083-1.566 0 0-1.007 1.566-1.007 1.566 0z"/><path fill="#D99025" d="M39.943 37.757c-1.473 1.667-2.395 4.619-7.836 4.619-4.746 0-6.055-2.601-7.836-4.619h15.672z"/><path fill="#FFF" d="M38.965 37.808c-3.225 3.303-10.447 3.348-13.715 0h13.715z"/><path fill="#D99025" d="M32.109 37.489c-3.072-1.346-3.096-.053-7.838.268 5.989.67 9.685.67 15.672 0-4.74-.32-4.765-1.613-7.834-.268z"/><path fill="#E6A400" d="M45.94 20.411c-3.323-1.37-7.87-1.637-10.206-.722-.492.193-.477 1.371-.043 1.253 3.349-.911 7.203-.982 10.375.12.425.15.373-.445-.126-.651zm-27.786.003c3.323-1.37 7.871-1.637 10.208-.725.492.193.477 1.373.041 1.253-3.349-.911-7.202-.982-10.372.122-.427.148-.376-.447.123-.65zm17.871 12.597c0 2.517-7.731 2.517-7.731 0 0-.579 7.731-.579 7.731 0z"/></svg>